# xmcd
#
# Track frame offsets: 
#        150
#        13852
#        35890
#        54972
#        64620
#        81300
#        92740
#        107895
#        123192
#        147100
#        165155
#        185865
#        210677
#        234892
#        259165
#        272530
#        289690
#        305980
#        321972
#
# Disc length: 4537 seconds
#
# Revision: 2
# Processed by: cddbd v1.5.1PL2 Copyright (c) Steve Scherf et al.
# Submitted via: ExactAudioCopy v0.95b2
#
DISCID=1311b713
DTITLE=Lightnin' Hopkins - How Many More Years I Got
DYEAR=1962
DGENRE=
TTITLE0=How Many More Years I Got
TTITLE1=Walkin' This Road By Myself
TTITLE2=The Devil Jumped the Black Man
TTITLE3=My Baby Don't Stand No Cheatin'
TTITLE4=Black Cadillac
TTITLE5=You Is One Black Rat
TTITLE6=The Fox Chase
TTITLE7=Mojo Hand
TTITLE8=Mama Blues
TTITLE9=My Black Name
TTITLE10=Prison Farm Blues
TTITLE11=Ida Mae
TTITLE12=I Got A Leak In This Old Building
TTITLE13=Happy Blues For John Glenn
TTITLE14=Worried Life Blues
TTITLE15=Sinner's Prayer
TTITLE16=Angel Child
TTITLE17=Pneumonia Blues
TTITLE18=Have You Ever Been Mistreated
EXTD=Billy Bizor Harmonica, Vocals \nDonald Cooks Bass \nLightnin' Hop
EXTD=kins Guitar, Vocals \nSpider Kilpatrick Drums \nBuster Pickens Pi
EXTD=ano \n\nFantasy FTC-24725-2
EXTT0=
EXTT1=
EXTT2=
EXTT3=
EXTT4=
EXTT5=
EXTT6=
EXTT7=
EXTT8=
EXTT9=
EXTT10=
EXTT11=
EXTT12=
EXTT13=
EXTT14=
EXTT15=
EXTT16=
EXTT17=
EXTT18=
PLAYORDER=
